<svg xmlns="http://www.w3.org/2000/svg" width="18.511" height="19.441" viewBox="0 0 18.511 19.441">
  <path id="Messages" d="M61.411,62l-.744-2.975a1.01,1.01,0,0,1,.131-.491,1.149,1.149,0,0,1,.084-.125,6.543,6.543,0,0,0,1.111-3.648A7,7,0,1,0,55,61.509a7.208,7.208,0,0,0,2.736-.535.411.411,0,0,1,.057-.024s.007,0,.007,0a1.084,1.084,0,0,1,.377-.067,1.023,1.023,0,0,1,.407.081L61.411,62m3,3.341-6.226-2.29A9.28,9.28,0,0,1,55,63.609a9.175,9.175,0,0,1-6.408-2.566A8.676,8.676,0,0,1,45.9,54.754,8.99,8.99,0,0,1,55,45.9a9.146,9.146,0,0,1,6.524,2.683,8.685,8.685,0,0,1,1.349,10.606Z" transform="translate(-45.9 -45.9)" fill="#727c8e"/>
</svg>
