<svg xmlns="http://www.w3.org/2000/svg" width="10.149" height="13.41" viewBox="0 0 10.149 13.41">
  <g id="share-arrow" transform="translate(-48.712 -1.65)">
    <g id="Group_27" data-name="Group 27" transform="translate(47.727 0)">
      <path id="Path_14" data-name="Path 14" d="M117.438,12.71a.724.724,0,0,0,.722-.722V2.211l3.079,2.742a.724.724,0,1,0,.962-1.082L118.051.179a.726.726,0,0,0-.926-.024.726.726,0,0,0-.313.289l-3.6,3.451a.723.723,0,1,0,1,1.046l2.5-2.405v9.452A.724.724,0,0,0,117.438,12.71Z" transform="translate(-111.658 2)" fill="#fff"/>
      <path id="Path_14_-_Outline" data-name="Path 14 - Outline" d="M117.438,13.06a1.073,1.073,0,0,1-1.072-1.071V3.358l-1.909,1.835a1.065,1.065,0,0,1-.74.3,1.073,1.073,0,0,1-.742-1.849L116.54.22a1.079,1.079,0,0,1,.4-.366,1.076,1.076,0,0,1,1.338.059l0,0,4.149,3.692a1.075,1.075,0,0,1,.09,1.515l-.006.006A1.08,1.08,0,0,1,121,5.212l-2.493-2.22v9A1.073,1.073,0,0,1,117.438,13.06Zm-.372-11.346V11.988a.372.372,0,0,0,.743,0V1.431l3.661,3.261A.38.38,0,0,0,122,4.659a.374.374,0,0,0-.031-.525L117.821.443a.383.383,0,0,0-.248-.093.373.373,0,0,0-.232.081l-.033.026-.038.017a.378.378,0,0,0-.157.15l-.024.04-3.629,3.484a.373.373,0,0,0,.258.644.368.368,0,0,0,.256-.1Z" transform="translate(-111.658 2)" fill="#fff"/>
    </g>
  </g>
</svg>
