<svg xmlns="http://www.w3.org/2000/svg" width="7.582" height="12.519" viewBox="0 0 7.582 12.519">
  <g transform="translate(-236.285 -413.487)">
    <path id="Path_11" data-name="Path 11" d="M26.582,16.758v0a.82.82,0,0,0-.252-.592h0l-4.937-4.937,0,0a.822.822,0,1,0-1.105,1.218L24.6,16.758,20.23,21.125h0a.823.823,0,0,0,1.163,1.163h0l4.937-4.937h0a.82.82,0,0,0,.252-.592Z" transform="translate(216.785 402.987)" fill="#fff"/>
    <path id="Path_11_-_Outline" data-name="Path 11 - Outline" d="M20.823,10.5a1.32,1.32,0,0,1,.494.1l.074-.074.357.352,5.29,5.29-.065.065a1.341,1.341,0,0,1,0,1.066l.061.064-.347.347-5.3,5.3-.074-.077A1.324,1.324,0,0,1,19.6,21.2l-.073-.073.353-.354,4.014-4.014-3.945-3.945a1.323,1.323,0,0,1,.878-2.312Zm.3,1.166-.08-.076a.322.322,0,1,0-.433.478l.028.026L25.3,16.758l-4.714,4.714a.323.323,0,0,0,.456.456l.013-.012,4.571-4.571-.006-.006.36-.347a.326.326,0,0,0,0-.468l-.366-.353.007-.007Z" transform="translate(216.785 402.987)" fill="#fff"/>
  </g>
</svg>
